<?xml version="1.0" encoding="utf-8"?>
<!-- Generator: Adobe Illustrator 25.4.1, SVG Export Plug-In . SVG Version: 6.00 Build 0)  -->
<svg version="1.1" id="Layer_1" xmlns="http://www.w3.org/2000/svg" xmlns:xlink="http://www.w3.org/1999/xlink" x="0px" y="0px"
	 viewBox="0 0 2872 1236" style="enable-background:new 0 0 2872 1236;" xml:space="preserve">
<style type="text/css">
	.st0{fill:#FFFFFF;}
	.st1{fill:url(#SVGID_1_);}
	.st2{fill:url(#SVGID_00000003801440000393198790000002521884196999950225_);}
	.st3{fill:url(#SVGID_00000057131148395101481290000011768164143590110653_);}
	.st4{fill:url(#SVGID_00000051353334596197376720000000719550536705976216_);}
	.st5{fill:url(#SVGID_00000006690906943963840530000001352597564898619016_);}
</style>
<g>
	<path class="st0" d="M1204.2,816.1c4.2,1.1,8.5,1.8,12.8,2.2c4.2,0.3,8.5,0.5,12.8,0.5c10.6,0,20.9-1.2,30.7-3.7
		c9.8-2.4,19.1-5.9,27.7-10.5s16.3-10.1,23.1-16.7c6.8-6.5,12.3-13.8,16.5-21.8l79.7,67c-10.1,12-21.7,22.8-34.9,32.3
		c-13.2,9.6-27.4,17.7-42.7,24.3c-15.3,6.7-31.4,11.7-48.2,15.2c-16.9,3.4-34.2,5.2-52,5.2c-30,0-58.3-4.7-84.7-14
		c-26.4-9.3-49.6-22.3-69.4-39s-35.4-36.5-46.8-59.5s-17.1-48.3-17.1-75.8c0-28.2,5.7-54,17.1-77.3c11.4-23.3,27-43.2,46.8-59.7
		c19.8-16.4,42.9-29.2,69.4-38.3c26.4-9.1,54.7-13.7,84.7-13.7c17.8,0,35.2,1.8,52.2,5.3c17,3.6,33.1,8.7,48.4,15.3
		c15.3,6.7,29.6,14.8,42.9,24.5s25,20.5,35.1,32.5L1204.2,816.1z M1260,628.5c-5.1-1.6-10-2.6-14.9-3s-10-0.7-15.3-0.7
		c-14.9,0-28.9,2.3-42.1,6.8c-13.2,4.6-24.6,11.1-34.3,19.5c-9.7,8.4-17.3,18.6-22.9,30.5s-8.4,25.3-8.4,40.2
		c0,3.3,0.2,7.1,0.6,11.3s1.1,8.5,2,12.8s2.1,8.5,3.4,12.5s3.1,7.6,5.2,10.7L1260,628.5z"/>
	<path class="st0" d="M1636.3,903.4h-109.6V404.5h109.6V903.4z"/>
	<path class="st0" d="M2196.3,903.4H2170l-42.3-49c-10.4,7.8-21.3,15.1-32.9,21.8c-11.6,6.8-23.7,12.7-36.5,17.7
		s-25.8,8.9-39.3,11.8c-13.4,2.9-27,4.3-40.9,4.3c-30,0-58.3-4.2-84.7-12.7c-26.4-8.4-49.6-20.7-69.4-36.8s-35.4-35.8-46.8-59.2
		c-11.4-23.3-17.1-49.9-17.1-79.6c0-27.8,5.7-53.3,17.1-76.5s27-43.2,46.8-59.8c19.8-16.7,42.9-29.6,69.4-38.8
		c26.4-9.2,54.7-13.8,84.7-13.8c13.8,0,27.5,1.4,41.1,4.3c13.6,2.9,26.7,6.9,39.5,12s24.9,11.1,36.5,18s22.4,14.3,32.5,22.3
		l42.3-42.3h26.3V903.4z M2086.7,721.8c0-12.4-2.9-24.5-8.6-36.2c-5.7-11.7-13.5-22-23.3-31s-21.3-16.2-34.5-21.7
		c-13.2-5.4-27.2-8.2-42.1-8.2s-28.9,2.1-42.1,6.3s-24.6,10.4-34.3,18.7c-9.7,8.2-17.3,18.4-22.9,30.5s-8.4,25.9-8.4,41.5
		s2.8,29.4,8.4,41.5s13.2,22.3,22.9,30.5c9.7,8.2,21.1,14.4,34.3,18.7c13.2,4.2,27.2,6.3,42.1,6.3s28.9-2.7,42.1-8.2
		c13.2-5.4,24.6-12.7,34.5-21.7c9.8-9,17.6-19.3,23.3-31C2083.8,746.3,2086.7,734.2,2086.7,721.8z"/>
	<path class="st0" d="M2716.1,617.5l-79.7,67c-4-9.3-9.4-17.7-16.3-25.2c-6.9-7.4-14.7-13.7-23.3-18.8s-18-9-28.1-11.7
		s-20.5-4-31.1-4c-14.9,0-28.9,2.6-42.1,7.7c-13.2,5.1-24.6,12.3-34.3,21.5s-17.3,20.2-22.9,32.8s-8.4,26.7-8.4,42
		c0,12.4,2.8,24.1,8.4,35c5.6,10.9,13.2,20.4,22.9,28.7c9.7,8.2,21.1,14.7,34.3,19.3c13.2,4.7,27.2,7,42.1,7
		c10.6,0,20.9-1.2,30.7-3.7c9.8-2.4,19.1-5.9,27.7-10.5c8.6-4.6,16.3-10.1,23.1-16.7c6.8-6.5,12.3-13.8,16.5-21.8l79.7,67
		c-10.1,12-21.7,22.8-34.9,32.3c-13.2,9.6-27.4,17.7-42.7,24.3c-15.3,6.7-31.4,11.7-48.2,15.2c-16.9,3.4-34.2,5.2-52,5.2
		c-30,0-58.3-4.7-84.7-14.2c-26.4-9.4-49.6-22.4-69.4-38.8c-19.8-16.4-35.4-35.7-46.8-57.7c-11.4-22-17.1-45.5-17.1-70.7
		c0-27.3,5.7-52.9,17.1-76.7c11.4-23.8,27-44.5,46.8-62.2s42.9-31.6,69.4-41.8c26.4-10.2,54.7-15.3,84.7-15.3
		c17.8,0,35.3,1.9,52.4,5.7c17.1,3.8,33.5,9.3,49,16.5s29.9,16.1,43.1,26.5C2695.1,591.9,2706.5,603.9,2716.1,617.5z"/>
</g>
<g>
	<g>
		<linearGradient id="SVGID_1_" gradientUnits="userSpaceOnUse" x1="670.6231" y1="925.5969" x2="295.6969" y2="276.2057">
			<stop  offset="1.331947e-07" style="stop-color:#00F5D5"/>
			<stop  offset="1" style="stop-color:#00BBFA"/>
		</linearGradient>
		<path class="st1" d="M225.2,614.5l-0.2-44.9c0-0.3-0.2-0.5-0.5-0.5h-71.8c-0.3,0-0.5,0.2-0.5,0.5v67.1c0,0.3,0.2,0.5,0.5,0.5h56.9
			c0.3,0,0.5,0.2,0.5,0.5v297.6c0,0.3,0.2,0.5,0.5,0.5c13.5,0.9,303.7,17.8,429.3-160c1-1.4-3.6,0.2-5.4,0.6
			c-9.1,2.1-28.7,6.3-39.9,6.3H363.6c-0.3,0-0.5-0.2-0.5-0.5V447.3c0-0.3,0.2-0.5,0.5-0.5l214.5,0c26,0,51.5,7.1,73.5,21
			c44.2,27.8,107.1,84.1,92.2,173.1C721.8,773.3,584,921.7,454.9,936.1c-0.7,0.1-0.7,1,0,1.1c53.1,4,445.1,21.4,438.2-333.6
			c-2.8-142.1-56.3-227.8-160.5-277c-27.1-12.8-76.8-28.4-106.8-29.1H259.1c-0.3,0-0.5,0.2-0.5,0.5v29.7c0,12.1,9.8,22,22,22h301.4
			c50.4,0,100.2,12.8,143.6,38.3c51.7,30.4,104.5,84.2,115.4,178.2C862.8,756.3,720,853.4,693.1,857.3c-0.5,0.1-0.8-0.6-0.5-0.9
			c11.5-11.3,119.9-112.6,105.8-253.2C783.6,453.8,655,409.4,616.9,409.4h-261c-24.9,0-45.1,20.2-45.1,45.1v380
			c0,0.3,0.2,0.5,0.5,0.5h190.2c0.6,0,0.8,0.9,0.2,1.1c-17.3,5.6-99.8,32.3-140.6,41c-11.3,2.4-59.8,2.8-71.3,2.8l-30.7,0
			c-0.3,0-0.5-0.2-0.5-0.5V630.6c0-7.3-5.6-13.3-12.8-13.9l-20.1-1.7C225.4,615,225.2,614.8,225.2,614.5z"/>
		
			<linearGradient id="SVGID_00000004513133003139189820000005072903512833738886_" gradientUnits="userSpaceOnUse" x1="255.3781" y1="520.0135" x2="218.5262" y2="456.1841">
			<stop  offset="1.331947e-07" style="stop-color:#00F5D5"/>
			<stop  offset="1" style="stop-color:#00BBFA"/>
		</linearGradient>
		<path style="fill:url(#SVGID_00000004513133003139189820000005072903512833738886_);" d="M263.8,515.1h-53.6
			c-0.1,0-0.2-0.1-0.2-0.2v-53.6c0-0.1,0.1-0.2,0.2-0.2h53.6c0.1,0,0.2,0.1,0.2,0.2v53.6C264,515,263.9,515.1,263.8,515.1z"/>
		
			<linearGradient id="SVGID_00000151546027382296981820000000925732873397385908_" gradientUnits="userSpaceOnUse" x1="164.7949" y1="504.6524" x2="108.0548" y2="406.3758">
			<stop  offset="1.331947e-07" style="stop-color:#00F5D5"/>
			<stop  offset="1" style="stop-color:#00BBFA"/>
		</linearGradient>
		<path style="fill:url(#SVGID_00000151546027382296981820000000925732873397385908_);" d="M177.8,497.1H95.1
			c-0.1,0-0.2-0.1-0.2-0.2v-82.7c0-0.1,0.1-0.2,0.2-0.2h82.7c0.1,0,0.2,0.1,0.2,0.2v82.7C178,497,177.9,497.1,177.8,497.1z"/>
		
			<linearGradient id="SVGID_00000160892582325960128060000011255831010114067107_" gradientUnits="userSpaceOnUse" x1="242.9851" y1="412.6694" x2="203.2412" y2="343.831">
			<stop  offset="1.331947e-07" style="stop-color:#00F5D5"/>
			<stop  offset="1" style="stop-color:#00BBFA"/>
		</linearGradient>
		<path style="fill:url(#SVGID_00000160892582325960128060000011255831010114067107_);" d="M252.8,407h-58.1v-58.1
			c0,0,0-0.1,0.1-0.1h53.9c2.3,0,4.2,1.9,4.2,4.2L252.8,407C252.9,406.9,252.9,407,252.8,407z"/>
		
			<linearGradient id="SVGID_00000067958071838135693770000003871657882100942499_" gradientUnits="userSpaceOnUse" x1="134.4576" y1="364.0817" x2="102.3409" y2="308.4541">
			<stop  offset="1.331947e-07" style="stop-color:#00F5D5"/>
			<stop  offset="1" style="stop-color:#00BBFA"/>
		</linearGradient>
		<path style="fill:url(#SVGID_00000067958071838135693770000003871657882100942499_);" d="M141.7,359.8H95.1
			c-0.1,0-0.2-0.1-0.2-0.2v-46.7c0-0.1,0.1-0.2,0.2-0.2h46.7c0.1,0,0.2,0.1,0.2,0.2v46.7C142,359.7,141.9,359.8,141.7,359.8z"/>
	</g>
</g>
</svg>
