<?xml version="1.0" encoding="utf-8"?>
<!-- Generator: Adobe Illustrator 25.4.1, SVG Export Plug-In . SVG Version: 6.00 Build 0)  -->
<svg version="1.1" id="Layer_1" xmlns="http://www.w3.org/2000/svg" xmlns:xlink="http://www.w3.org/1999/xlink" x="0px" y="0px"
	 viewBox="0 0 2571 1109" style="enable-background:new 0 0 2571 1109;" xml:space="preserve">
<style type="text/css">
	.st0{fill:#FFFFFF;}
	.st1{fill:url(#SVGID_1_);}
	.st2{fill:url(#SVGID_00000119107561210459824240000017915061105589969315_);}
	.st3{fill:url(#SVGID_00000001650174863852641720000016247472769493702576_);}
	.st4{fill:url(#SVGID_00000059268172517941383800000000807782576601999803_);}
	.st5{fill:url(#SVGID_00000180362540224271973370000017666437416141995709_);}
</style>
<g>
	<path class="st0" d="M1103.9,742.6c3.8,1,7.7,1.6,11.6,2c3.8,0.3,7.7,0.5,11.6,0.5c9.6,0,18.9-1.1,27.7-3.3
		c8.8-2.2,17.2-5.3,25-9.5s14.7-9.1,20.8-15.1c6.1-5.9,11.1-12.5,14.9-19.7l71.9,60.5c-9.1,10.8-19.6,20.6-31.5,29.1
		c-11.9,8.7-24.7,16-38.5,21.9c-13.8,6-28.3,10.6-43.5,13.7c-15.2,3.1-30.9,4.7-46.9,4.7c-27.1,0-52.6-4.2-76.4-12.6
		c-23.8-8.4-44.8-20.1-62.6-35.2c-17.9-15.1-31.9-32.9-42.2-53.7s-15.4-43.6-15.4-68.4c0-25.4,5.1-48.7,15.4-69.8
		c10.3-21,24.4-39,42.2-53.9c17.9-14.8,38.7-26.3,62.6-34.6c23.8-8.2,49.4-12.4,76.4-12.4c16.1,0,31.8,1.6,47.1,4.8
		c15.3,3.2,29.9,7.9,43.7,13.8c13.8,6,26.7,13.4,38.7,22.1c12,8.8,22.6,18.5,31.7,29.3L1103.9,742.6z M1154.2,573.3
		c-4.6-1.4-9-2.3-13.4-2.7c-4.4-0.4-9-0.6-13.8-0.6c-13.4,0-26.1,2.1-38,6.1c-11.9,4.2-22.2,10-31,17.6
		c-8.8,7.6-15.6,16.8-20.7,27.5s-7.6,22.8-7.6,36.3c0,3,0.2,6.4,0.5,10.2s1,7.7,1.8,11.6c0.8,3.9,1.9,7.7,3.1,11.3s2.8,6.9,4.7,9.7
		L1154.2,573.3z"/>
	<path class="st0" d="M1493.8,821.4h-98.9V371.2h98.9V821.4z"/>
	<path class="st0" d="M1999.1,821.4h-23.7l-38.2-44.2c-9.4,7-19.2,13.6-29.7,19.7c-10.5,6.1-21.4,11.5-32.9,16
		c-11.6,4.5-23.3,8-35.5,10.6c-12.1,2.6-24.4,3.9-36.9,3.9c-27.1,0-52.6-3.8-76.4-11.5c-23.8-7.6-44.8-18.7-62.6-33.2
		c-17.9-14.5-31.9-32.3-42.2-53.4c-10.3-21-15.4-45-15.4-71.8c0-25.1,5.1-48.1,15.4-69c10.3-20.9,24.4-39,42.2-54
		c17.9-15.1,38.7-26.7,62.6-35c23.8-8.3,49.4-12.5,76.4-12.5c12.5,0,24.8,1.3,37.1,3.9c12.3,2.6,24.1,6.2,35.6,10.8
		c11.6,4.6,22.5,10,32.9,16.2c10.5,6.2,20.2,12.9,29.3,20.1l38.2-38.2h23.7V821.4z M1900.2,657.5c0-11.2-2.6-22.1-7.8-32.7
		c-5.1-10.6-12.2-19.9-21-28c-8.8-8.1-19.2-14.6-31.1-19.6c-11.9-4.9-24.5-7.4-38-7.4c-13.4,0-26.1,1.9-38,5.7
		c-11.9,3.8-22.2,9.4-31,16.9c-8.8,7.4-15.6,16.6-20.7,27.5c-5.1,10.9-7.6,23.4-7.6,37.4s2.5,26.5,7.6,37.4
		c5.1,10.9,11.9,20.1,20.7,27.5c8.8,7.4,19,13,31,16.9c11.9,3.8,24.5,5.7,38,5.7c13.4,0,26.1-2.4,38-7.4
		c11.9-4.9,22.2-11.5,31.1-19.6c8.8-8.1,15.9-17.4,21-28C1897.6,679.6,1900.2,668.7,1900.2,657.5z"/>
	<path class="st0" d="M2468.2,563.4l-71.9,60.5c-3.6-8.4-8.5-16-14.7-22.7c-6.2-6.7-13.3-12.4-21-17c-7.8-4.6-16.2-8.1-25.4-10.6
		c-9.1-2.4-18.5-3.6-28.1-3.6c-13.4,0-26.1,2.3-38,6.9c-11.9,4.6-22.2,11.1-31,19.4c-8.8,8.3-15.6,18.2-20.7,29.6
		c-5.1,11.4-7.6,24.1-7.6,37.9c0,11.2,2.5,21.7,7.6,31.6c5.1,9.8,11.9,18.4,20.7,25.9c8.8,7.4,19,13.3,31,17.4
		c11.9,4.2,24.5,6.3,38,6.3c9.6,0,18.9-1.1,27.7-3.3c8.8-2.2,17.2-5.3,25-9.5c7.8-4.2,14.7-9.1,20.8-15.1
		c6.1-5.9,11.1-12.5,14.9-19.7l71.9,60.5c-9.1,10.8-19.6,20.6-31.5,29.1c-11.9,8.7-24.7,16-38.5,21.9c-13.8,6-28.3,10.6-43.5,13.7
		c-15.2,3.1-30.9,4.7-46.9,4.7c-27.1,0-52.6-4.2-76.4-12.8c-23.8-8.5-44.8-20.2-62.6-35c-17.9-14.8-31.9-32.2-42.2-52.1
		c-10.3-19.9-15.4-41.1-15.4-63.8c0-24.6,5.1-47.7,15.4-69.2c10.3-21.5,24.4-40.2,42.2-56.1c17.9-16,38.7-28.5,62.6-37.7
		c23.8-9.2,49.4-13.8,76.4-13.8c16.1,0,31.9,1.7,47.3,5.1c15.4,3.4,30.2,8.4,44.2,14.9s27,14.5,38.9,23.9
		C2449.2,540.3,2459.5,551.1,2468.2,563.4z"/>
</g>
<g>
	<g>
		<linearGradient id="SVGID_1_" gradientUnits="userSpaceOnUse" x1="622.41" y1="841.4252" x2="284.092" y2="255.4413">
			<stop  offset="1.331947e-07" style="stop-color:#00F5D5"/>
			<stop  offset="1" style="stop-color:#00BBFA"/>
		</linearGradient>
		<path class="st1" d="M220.4,560.7l-0.2-40.5c0-0.3-0.2-0.5-0.5-0.5h-64.8c-0.3,0-0.5,0.2-0.5,0.5v60.5c0,0.3,0.2,0.5,0.5,0.5h51.3
			c0.3,0,0.5,0.2,0.5,0.5v268.5c0,0.3,0.2,0.5,0.4,0.5c12.2,0.8,274.1,16,387.4-144.4c0.9-1.3-3.3,0.2-4.8,0.6
			c-8.2,1.9-25.9,5.7-36,5.7H345.4c-0.3,0-0.5-0.2-0.5-0.5V409.8c0-0.3,0.2-0.5,0.5-0.5l193.5,0c23.5,0,46.5,6.4,66.4,19
			c39.9,25.1,96.6,75.9,83.2,156.2C668.6,704,544.3,837.9,427.8,850.9c-0.6,0.1-0.6,0.9,0,1c48,3.6,401.7,19.3,395.4-301
			c-2.5-128.2-50.8-205.6-144.8-249.9c-24.4-11.5-69.3-25.6-96.3-26.3H251c-0.3,0-0.5,0.2-0.5,0.5v26.8c0,11,8.9,19.8,19.8,19.8h272
			c45.5,0,90.4,11.5,129.6,34.6c46.6,27.4,94.3,75.9,104.1,160.8c19.8,171.6-109,259.1-133.3,262.6c-0.5,0.1-0.7-0.5-0.4-0.8
			c10.4-10.2,108.2-101.6,95.5-228.5c-13.5-134.7-129.5-174.8-163.9-174.8H338.4c-22.5,0-40.7,18.2-40.7,40.7v342.9
			c0,0.3,0.2,0.5,0.5,0.5h171.6c0.6,0,0.7,0.8,0.2,1c-15.6,5.1-90,29.2-126.9,37c-10.2,2.2-54,2.5-64.4,2.5H251
			c-0.3,0-0.5-0.2-0.5-0.5V575.2c0-6.5-5-12-11.5-12.5l-18.1-1.5C220.6,561.1,220.4,560.9,220.4,560.7z"/>
		
			<linearGradient id="SVGID_00000020395265172476383860000006836962151216268221_" gradientUnits="userSpaceOnUse" x1="247.7059" y1="475.4364" x2="214.4604" y2="417.8535">
			<stop  offset="1.331947e-07" style="stop-color:#00F5D5"/>
			<stop  offset="1" style="stop-color:#00BBFA"/>
		</linearGradient>
		<path style="fill:url(#SVGID_00000020395265172476383860000006836962151216268221_);" d="M255.3,471h-48.3c-0.1,0-0.2-0.1-0.2-0.2
			v-48.3c0-0.1,0.1-0.2,0.2-0.2h48.3c0.1,0,0.2,0.1,0.2,0.2v48.3C255.5,470.9,255.4,471,255.3,471z"/>
		
			<linearGradient id="SVGID_00000140700107708571750650000012326837868551772803_" gradientUnits="userSpaceOnUse" x1="165.9673" y1="461.5752" x2="114.7755" y2="372.9084">
			<stop  offset="1.331947e-07" style="stop-color:#00F5D5"/>
			<stop  offset="1" style="stop-color:#00BBFA"/>
		</linearGradient>
		<path style="fill:url(#SVGID_00000140700107708571750650000012326837868551772803_);" d="M177.7,454.8h-74.6
			c-0.1,0-0.2-0.1-0.2-0.2v-74.6c0-0.1,0.1-0.2,0.2-0.2h74.6c0.1,0,0.2,0.1,0.2,0.2v74.6C177.9,454.7,177.8,454.8,177.7,454.8z"/>
		
			<linearGradient id="SVGID_00000130642443528610801060000011189875379752896425_" gradientUnits="userSpaceOnUse" x1="236.4604" y1="378.6154" x2="200.6003" y2="316.5039">
			<stop  offset="1.331947e-07" style="stop-color:#00F5D5"/>
			<stop  offset="1" style="stop-color:#00BBFA"/>
		</linearGradient>
		<path style="fill:url(#SVGID_00000130642443528610801060000011189875379752896425_);" d="M245.4,373.4h-52.5V321
			c0,0,0-0.1,0.1-0.1h48.3c2.3,0,4.2,1.9,4.2,4.2L245.4,373.4C245.5,373.4,245.4,373.4,245.4,373.4z"/>
		
			<linearGradient id="SVGID_00000174562843027476630350000006086180277569779852_" gradientUnits="userSpaceOnUse" x1="138.5922" y1="334.73" x2="109.6196" y2="284.5479">
			<stop  offset="1.331947e-07" style="stop-color:#00F5D5"/>
			<stop  offset="1" style="stop-color:#00BBFA"/>
		</linearGradient>
		<path style="fill:url(#SVGID_00000174562843027476630350000006086180277569779852_);" d="M145.1,330.9h-42.1
			c-0.1,0-0.2-0.1-0.2-0.2v-42.1c0-0.1,0.1-0.2,0.2-0.2h42.1c0.1,0,0.2,0.1,0.2,0.2v42.1C145.4,330.8,145.3,330.9,145.1,330.9z"/>
	</g>
</g>
</svg>
