<?xml version="1.0" encoding="utf-8"?>
<!-- Generator: Adobe Illustrator 25.4.1, SVG Export Plug-In . SVG Version: 6.00 Build 0)  -->
<svg version="1.1" id="Layer_1" xmlns="http://www.w3.org/2000/svg" xmlns:xlink="http://www.w3.org/1999/xlink" x="0px" y="0px"
	 viewBox="0 0 1834 1834" style="enable-background:new 0 0 1834 1834;" xml:space="preserve">
<style type="text/css">
	.st0{fill:#FFFFFF;}
</style>
<g>
	<g>
		<path class="st0" d="M347.5,909.5l-0.5-95.2c0-0.6-0.5-1.1-1.2-1.1H193.7c-0.6,0-1.2,0.5-1.2,1.2v142c0,0.6,0.5,1.2,1.2,1.2h120.5
			c0.6,0,1.2,0.5,1.2,1.2V1589c0,0.6,0.4,1.1,1,1.1c28.7,1.9,643.3,37.7,909.2-338.9c2.1-3-7.7,0.5-11.3,1.3
			c-19.3,4.4-60.8,13.3-84.5,13.3H640.7c-0.6,0-1.2-0.5-1.2-1.2V555.5c0-0.6,0.5-1.2,1.2-1.2l454.2,0c55.1,0,109.2,15.1,155.7,44.5
			c93.6,59,226.8,178.1,195.4,366.7c-46.7,280.3-338.4,594.8-611.8,625.2c-1.4,0.2-1.4,2.2,0,2.3c112.6,8.4,942.8,45.3,928.1-706.6
			c-5.9-301-119.2-482.5-339.9-586.7c-57.4-27.1-162.7-60.2-226.1-61.7h-777c-0.6,0-1.2,0.5-1.2,1.2v63c0,25.7,20.9,46.6,46.6,46.6
			h638.4c106.7,0,212.1,27,304.1,81.2c109.4,64.4,221.4,178.2,244.4,377.4c46.5,402.7-255.9,608.2-313,616.5c-1.1,0.2-1.8-1.2-1-2
			c24.4-23.9,254-238.5,224.2-536.3c-31.6-316.3-304-410.3-384.6-410.3H624.3c-52.7,0-95.5,42.7-95.5,95.5v804.8
			c0,0.6,0.5,1.2,1.2,1.2h402.8c1.3,0,1.6,1.8,0.4,2.2c-36.7,12-211.4,68.4-297.8,86.8c-23.8,5.1-126.7,5.9-151.1,5.9h-65
			c-0.6,0-1.2-0.5-1.2-1.2V943.6c0-15.4-11.8-28.2-27.1-29.4l-42.5-3.5C348,910.6,347.5,910.1,347.5,909.5z"/>
		<path class="st0" d="M429.5,699.1H315.5c-0.1,0-0.2-0.1-0.2-0.2V584.8c0-0.1,0.1-0.2,0.2-0.2h114.1c0.1,0,0.2,0.1,0.2,0.2v114.1
			C429.8,699,429.7,699.1,429.5,699.1z"/>
		<path class="st0" d="M247.5,661H71.7c-0.1,0-0.2-0.1-0.2-0.2V485c0-0.1,0.1-0.2,0.2-0.2h175.8c0.1,0,0.2,0.1,0.2,0.2v175.8
			C247.7,660.9,247.6,661,247.5,661z"/>
		<path class="st0" d="M406.2,470.1H282.9V346.8c0,0,0-0.1,0.1-0.1h119.1c2.3,0,4.2,1.9,4.2,4.2L406.2,470.1
			C406.3,470,406.2,470.1,406.2,470.1z"/>
		<path class="st0" d="M171.1,370.2H71.7c-0.1,0-0.2-0.1-0.2-0.2v-99.4c0-0.1,0.1-0.2,0.2-0.2h99.4c0.1,0,0.2,0.1,0.2,0.2V370
			C171.3,370.1,171.2,370.2,171.1,370.2z"/>
	</g>
</g>
</svg>
