<?xml version="1.0" encoding="utf-8"?>
<!-- Generator: Adobe Illustrator 25.4.1, SVG Export Plug-In . SVG Version: 6.00 Build 0)  -->
<svg version="1.1" id="Layer_1" xmlns="http://www.w3.org/2000/svg" xmlns:xlink="http://www.w3.org/1999/xlink" x="0px" y="0px"
	 viewBox="0 0 2954 1273" style="enable-background:new 0 0 2954 1273;" xml:space="preserve">
<style type="text/css">
	.st0{fill:url(#SVGID_1_);}
	.st1{fill:url(#SVGID_00000013170046562250025190000004586549246268687506_);}
	.st2{fill:url(#SVGID_00000102546336507116221250000006542890361947076494_);}
	.st3{fill:url(#SVGID_00000167398255646419643570000015705059914866906516_);}
	.st4{fill:url(#SVGID_00000044167850434390941260000003469337643596274075_);}
</style>
<g>
	<path d="M1271.7,838.6c4.3,1.1,8.7,1.8,13.1,2.2c4.3,0.3,8.7,0.5,13.1,0.5c10.8,0,21.3-1.2,31.3-3.8c10-2.4,19.5-6,28.3-10.7
		s16.6-10.3,23.6-17c6.9-6.6,12.5-14.1,16.8-22.2l81.3,68.3c-10.3,12.2-22.1,23.3-35.6,32.9c-13.5,9.8-27.9,18.1-43.6,24.8
		c-15.6,6.8-32,11.9-49.2,15.5c-17.2,3.5-34.9,5.3-53,5.3c-30.6,0-59.5-4.8-86.4-14.3s-50.6-22.7-70.8-39.8
		c-20.2-17-36.1-37.2-47.7-60.7s-17.4-49.3-17.4-77.3c0-28.8,5.8-55.1,17.4-78.8c11.6-23.8,27.5-44.1,47.7-60.9
		c20.2-16.7,43.8-29.8,70.8-39.1c26.9-9.3,55.8-14,86.4-14c18.2,0,35.9,1.8,53.2,5.4c17.3,3.7,33.8,8.9,49.4,15.6
		c15.6,6.8,30.2,15.1,43.8,25c13.6,9.9,25.5,20.9,35.8,33.2L1271.7,838.6z M1328.6,647.2c-5.2-1.6-10.2-2.7-15.2-3.1
		c-5-0.4-10.2-0.7-15.6-0.7c-15.2,0-29.5,2.3-42.9,6.9c-13.5,4.7-25.1,11.3-35,19.9c-9.9,8.6-17.6,19-23.4,31.1
		c-5.7,12.1-8.6,25.8-8.6,41c0,3.4,0.2,7.2,0.6,11.5c0.4,4.3,1.1,8.7,2,13.1c0.9,4.4,2.1,8.7,3.5,12.8c1.3,4.1,3.2,7.8,5.3,10.9
		L1328.6,647.2z"/>
	<path d="M1712.5,927.6h-111.8V418.7h111.8V927.6z"/>
	<path d="M2283.7,927.6h-26.8l-43.1-50c-10.6,8-21.7,15.4-33.6,22.2c-11.8,6.9-24.2,13-37.2,18.1c-13.1,5.1-26.3,9.1-40.1,12
		c-13.7,3-27.5,4.4-41.7,4.4c-30.6,0-59.5-4.3-86.4-13c-26.9-8.6-50.6-21.1-70.8-37.5c-20.2-16.4-36.1-36.5-47.7-60.4
		c-11.6-23.8-17.4-50.9-17.4-81.2c0-28.4,5.8-54.4,17.4-78c11.6-23.7,27.5-44.1,47.7-61c20.2-17,43.8-30.2,70.8-39.6
		c26.9-9.4,55.8-14.1,86.4-14.1c14.1,0,28.1,1.4,41.9,4.4c13.9,3,27.2,7,40.3,12.2c13.1,5.2,25.4,11.3,37.2,18.4
		c11.8,7,22.8,14.6,33.2,22.7l43.1-43.1h26.8V927.6z M2171.9,742.4c0-12.6-3-25-8.8-36.9s-13.8-22.4-23.8-31.6
		c-10-9.2-21.7-16.5-35.2-22.1c-13.5-5.5-27.7-8.4-42.9-8.4c-15.2,0-29.5,2.1-42.9,6.4c-13.5,4.3-25.1,10.6-35,19.1
		c-9.9,8.4-17.6,18.8-23.4,31.1c-5.7,12.3-8.6,26.4-8.6,42.3s2.9,30,8.6,42.3c5.7,12.3,13.5,22.7,23.4,31.1
		c9.9,8.4,21.5,14.7,35,19.1c13.5,4.3,27.7,6.4,42.9,6.4c15.2,0,29.5-2.8,42.9-8.4c13.5-5.5,25.1-13,35.2-22.1
		c10-9.2,18-19.7,23.8-31.6C2168.9,767.4,2171.9,755,2171.9,742.4z"/>
	<path d="M2813.9,636l-81.3,68.3c-4.1-9.5-9.6-18.1-16.6-25.7c-7-7.5-15-14-23.8-19.2s-18.4-9.2-28.7-11.9
		c-10.3-2.8-20.9-4.1-31.7-4.1c-15.2,0-29.5,2.7-42.9,7.9c-13.5,5.2-25.1,12.5-35,21.9c-9.9,9.4-17.6,20.6-23.4,33.5
		s-8.6,27.2-8.6,42.8c0,12.6,2.9,24.6,8.6,35.7c5.7,11.1,13.5,20.8,23.4,29.3c9.9,8.4,21.5,15,35,19.7c13.5,4.8,27.7,7.1,42.9,7.1
		c10.8,0,21.3-1.2,31.3-3.8c10-2.4,19.5-6,28.3-10.7c8.8-4.7,16.6-10.3,23.6-17c6.9-6.6,12.5-14.1,16.8-22.2l81.3,68.3
		c-10.3,12.2-22.1,23.3-35.6,32.9c-13.5,9.8-27.9,18.1-43.6,24.8c-15.6,6.8-32,11.9-49.2,15.5c-17.2,3.5-34.9,5.3-53,5.3
		c-30.6,0-59.5-4.8-86.4-14.5c-26.9-9.6-50.6-22.8-70.8-39.6c-20.2-16.7-36.1-36.4-47.7-58.9c-11.6-22.4-17.4-46.4-17.4-72.1
		c0-27.8,5.8-54,17.4-78.2c11.6-24.3,27.5-45.4,47.7-63.4s43.8-32.2,70.8-42.6c26.9-10.4,55.8-15.6,86.4-15.6
		c18.2,0,36,1.9,53.4,5.8c17.4,3.9,34.2,9.5,50,16.8c15.8,7.3,30.5,16.4,44,27C2792.4,609.9,2804.1,622.1,2813.9,636z"/>
</g>
<g>
	<g>
		<linearGradient id="SVGID_1_" gradientUnits="userSpaceOnUse" x1="727.4542" y1="950.2523" x2="345.0251" y2="287.8658">
			<stop  offset="1.331947e-07" style="stop-color:#00F5D5"/>
			<stop  offset="1" style="stop-color:#00BBFA"/>
		</linearGradient>
		<path class="st0" d="M273.1,632.9l-0.2-45.8c0-0.3-0.2-0.6-0.6-0.6H199c-0.3,0-0.6,0.2-0.6,0.6v68.4c0,0.3,0.2,0.6,0.6,0.6h58
			c0.3,0,0.6,0.2,0.6,0.6v303.6c0,0.3,0.2,0.5,0.5,0.6c13.8,0.9,309.8,18.1,437.9-163.2c1-1.5-3.7,0.2-5.5,0.6
			c-9.3,2.1-29.3,6.4-40.7,6.4H414.3c-0.3,0-0.6-0.2-0.6-0.6V462.4c0-0.3,0.2-0.6,0.6-0.6l218.8,0c26.5,0,52.6,7.3,75,21.4
			c45.1,28.4,109.2,85.8,94.1,176.6c-22.5,135-163,286.5-294.6,301.1c-0.7,0.1-0.7,1,0,1.1c54.2,4.1,454.1,21.8,447-340.3
			c-2.8-145-57.4-232.4-163.7-282.5c-27.6-13-78.4-29-108.9-29.7H307.7c-0.3,0-0.6,0.2-0.6,0.6v30.3c0,12.4,10,22.4,22.4,22.4H637
			c51.4,0,102.2,13,146.5,39.1c52.7,31,106.6,85.8,117.7,181.7c22.4,193.9-123.3,292.9-150.7,296.9c-0.5,0.1-0.8-0.6-0.5-0.9
			c11.8-11.5,122.3-114.8,108-258.3C842.7,469,711.5,423.8,672.6,423.8H406.4c-25.4,0-46,20.6-46,46v387.6c0,0.3,0.2,0.6,0.6,0.6
			h194c0.6,0,0.8,0.9,0.2,1.1c-17.7,5.8-101.8,33-143.4,41.8c-11.5,2.4-61,2.8-72.7,2.8l-31.3,0c-0.3,0-0.6-0.2-0.6-0.6V649.3
			c0-7.4-5.7-13.6-13-14.2l-20.5-1.7C273.3,633.4,273.1,633.2,273.1,632.9z"/>
		
			<linearGradient id="SVGID_00000119087872579100610770000005056033886651183535_" gradientUnits="userSpaceOnUse" x1="303.9003" y1="536.5541" x2="266.3093" y2="471.4445">
			<stop  offset="1.331947e-07" style="stop-color:#00F5D5"/>
			<stop  offset="1" style="stop-color:#00BBFA"/>
		</linearGradient>
		<path style="fill:url(#SVGID_00000119087872579100610770000005056033886651183535_);" d="M312.5,531.6h-54.7
			c-0.1,0-0.2-0.1-0.2-0.2v-54.7c0-0.1,0.1-0.2,0.2-0.2h54.7c0.1,0,0.2,0.1,0.2,0.2v54.7C312.7,531.5,312.6,531.6,312.5,531.6z"/>
		
			<linearGradient id="SVGID_00000046335536233830230270000005433081434394400958_" gradientUnits="userSpaceOnUse" x1="211.5044" y1="520.8856" x2="153.6272" y2="420.6394">
			<stop  offset="1.331947e-07" style="stop-color:#00F5D5"/>
			<stop  offset="1" style="stop-color:#00BBFA"/>
		</linearGradient>
		<path style="fill:url(#SVGID_00000046335536233830230270000005433081434394400958_);" d="M224.8,513.2h-84.4
			c-0.1,0-0.2-0.1-0.2-0.2v-84.4c0-0.1,0.1-0.2,0.2-0.2h84.4c0.1,0,0.2,0.1,0.2,0.2V513C225,513.1,224.9,513.2,224.8,513.2z"/>
		
			<linearGradient id="SVGID_00000005975270261105498680000018229330676190010011_" gradientUnits="userSpaceOnUse" x1="291.2722" y1="427.0533" x2="250.7323" y2="356.8362">
			<stop  offset="1.331947e-07" style="stop-color:#00F5D5"/>
			<stop  offset="1" style="stop-color:#00BBFA"/>
		</linearGradient>
		<path style="fill:url(#SVGID_00000005975270261105498680000018229330676190010011_);" d="M301.3,421.3H242v-59.3
			c0,0,0-0.1,0.1-0.1h55.1c2.3,0,4.2,1.9,4.2,4.2L301.3,421.3C301.4,421.2,301.3,421.3,301.3,421.3z"/>
		
			<linearGradient id="SVGID_00000127732904335199637150000002872139830316411534_" gradientUnits="userSpaceOnUse" x1="180.56" y1="377.5019" x2="147.799" y2="320.7581">
			<stop  offset="1.331947e-07" style="stop-color:#00F5D5"/>
			<stop  offset="1" style="stop-color:#00BBFA"/>
		</linearGradient>
		<path style="fill:url(#SVGID_00000127732904335199637150000002872139830316411534_);" d="M188,373.2h-47.6c-0.1,0-0.2-0.1-0.2-0.2
			v-47.6c0-0.1,0.1-0.2,0.2-0.2H188c0.1,0,0.2,0.1,0.2,0.2v47.6C188.2,373.1,188.1,373.2,188,373.2z"/>
	</g>
</g>
</svg>
